<svg xmlns="http://www.w3.org/2000/svg" data-testid="MafLogoEn" height="48" width="164" viewBox="0 0 164 48" class="css-n2huxd"><g><polygon id="Path" fill="#fff" points="48.7084545 45.879672 45.9200112 40.0252519 44.2323651 40.0252519 44.2323651 47.8412567 45.6101842 47.8412567 45.6101842 42.5631784 48.1216057 47.8412567 49.2333379 47.8412567 51.6973741 42.5766601 51.6973741 47.8412567 53.0788382 47.8412567 53.0788382 40.0252519 51.4422224 40.0252519"/><polygon id="Path" fill="#fff" points="57.8288342 40.0252519 54.439834 47.8412567 55.9207996 47.8412567 58.4797703 41.7273142 59.5681077 44.315797 58.21113 44.315797 57.7978373 45.5156666 60.0743913 45.5156666 61.0525174 47.8412567 62.6058091 47.8412567 59.1961443 40.0252519"/><path d="M65.7796389,45.502185 C65.7796389,46.2841225 65.2823821,46.6447575 64.2134757,46.6447575 L63.966805,46.6447575 L63.966805,47.8412567 L64.2134757,47.8412567 C66.8211375,47.8412567 67.3692946,46.5672378 67.3692946,45.502185 L67.3692946,40.0252519 L65.7718081,40.0252519 L65.7796389,45.502185 Z" id="Path" fill="#fff"/><rect id="Rectangle" fill="#fff" x="70.0912863" y="40.0252519" width="1.36099585" height="7.81600474"/><path d="M77.3722423,40.0252519 L74.1742739,40.0252519 L74.1742739,47.8412567 L77.3722423,47.8412567 C80.2169467,47.8412567 81.659751,46.4593843 81.659751,43.7327143 C81.659751,41.2723074 80.2169467,40.0252519 77.3722423,40.0252519 M77.3722423,46.6447575 L75.6951681,46.6447575 L75.6951681,41.2217511 L77.3722423,41.2217511 C79.2315262,41.2217511 80.1388568,42.0407633 80.1388568,43.7327143 C80.1388568,45.6942989 79.2352448,46.6447575 77.3722423,46.6447575" id="Shape" fill="#fff"/><polygon id="Path" fill="#fff" points="90.4947486 40.0252519 87.1037344 47.8412567 88.5875183 47.8412567 91.1454101 41.7273142 92.2332888 44.315797 90.8768831 44.315797 90.4637647 45.5156666 92.7393589 45.5156666 93.7170726 47.8412567 95.2697095 47.8412567 91.8614822 40.0252519"/><polygon id="Path" fill="#fff" points="98.7386745 40.0252519 97.3112033 40.0252519 97.3112033 47.8412567 102.755187 47.8412567 102.755187 46.6447575 98.7386745 46.6447575"/><polygon id="Path" fill="#fff" points="109.560166 47.8412567 110.987467 47.8412567 110.987467 44.4809476 114.815704 44.4809476 114.815704 43.281078 110.987467 43.281078 110.987467 41.2183807 115.004149 41.2183807 115.004149 40.0252519 109.560166 40.0252519"/><path d="M122.424784,44.7449807 C122.424784,46.0470903 121.797276,46.6529562 120.448133,46.6529562 C119.09899,46.6529562 118.471482,46.0470903 118.471482,44.7449807 L118.471482,40.0252519 L117.045643,40.0252519 L117.045643,44.7449807 C117.045643,46.8002385 118.192589,47.8412567 120.448133,47.8412567 C122.703677,47.8412567 123.850622,46.8002385 123.850622,44.7449807 L123.850622,40.0252519 L122.424784,40.0252519 L122.424784,44.7449807 Z" id="Path" fill="#fff"/><polygon id="Path" fill="#fff" points="125.892116 41.2183807 128.25295 41.2183807 128.25295 47.8412567 129.652342 47.8412567 129.652342 41.2183807 132.016598 41.2183807 132.016598 40.0252519 125.892116 40.0252519"/><polygon id="Path" fill="#fff" points="134.058091 41.2183807 136.418925 41.2183807 136.418925 47.8412567 137.818318 47.8412567 137.818318 41.2183807 140.182573 41.2183807 140.182573 40.0252519 134.058091 40.0252519"/><polygon id="Path" fill="#fff" points="144.252071 40.0252519 140.863071 47.8412567 142.344036 47.8412567 144.903007 41.7273142 145.994788 44.315797 144.637811 44.315797 144.221074 45.5156666 146.497628 45.5156666 147.475754 47.8412567 149.029046 47.8412567 145.619381 40.0252519"/><rect id="Rectangle" fill="#fff" x="151.070539" y="40.0252519" width="1.36099585" height="7.81600474"/><polygon id="Path" fill="#fff" points="159.629616 45.879672 156.841173 40.0252519 155.153527 40.0252519 155.153527 47.8412567 156.531346 47.8412567 156.531346 42.5631784 159.039122 47.8412567 160.158145 47.8412567 162.622181 42.5766601 162.622181 47.8412567 164 47.8412567 164 40.0252519 162.363384 40.0252519"/><rect id="Rectangle" fill="#fff" x="59.8838174" y="35.4659158" width="1.36099585" height="1.30266746"/><rect id="Rectangle" fill="#fff" x="62.6058091" y="35.4659158" width="1.36099585" height="1.30266746"/><rect id="Rectangle" fill="#fff" x="93.9087137" y="23.7419087" width="1.36099585" height="1.30266746"/><path d="M110.921162,31.8374708 L110.921162,25.0445762 L109.480738,25.0445762 L109.480738,31.398995 C109.514652,31.8228664 109.45037,32.2487717 109.292702,32.644823 C109.133049,32.95802 108.8031,33.1111385 108.288663,33.1111385 L97.0420017,33.1111385 C96.7240892,33.1121295 96.408003,33.0639795 96.1053713,32.9684599 C96.5894264,32.6810255 96.9958598,32.2835614 97.2903507,31.809631 C97.6477268,31.2482793 97.8359125,30.5992142 97.8331706,29.9374091 C97.8529038,29.1393057 97.5566185,28.3647433 97.0065233,27.7763499 C95.634597,26.488189 93.4717833,26.488189 92.099857,27.7763499 C91.5404753,28.361447 91.2384152,29.1390288 91.2590183,29.940889 C91.2661359,31.1743338 91.9168655,32.3182472 92.9832698,32.9719398 C92.6819221,33.0677247 92.3669599,33.1158859 92.0501872,33.1146185 L82.8932056,33.1146185 C82.8932056,32.9684599 82.8932056,32.8292612 82.8932056,32.6900626 C82.8932056,29.4049742 81.665652,27.7380702 79.2495713,27.7380702 C77.5785374,27.7380702 75.8897643,28.9212588 74.8254116,30.7621611 L75.0240908,25.0758959 L73.5481883,25.0758959 L73.5481883,33.1285383 L64.0080396,33.1285383 C64.1277538,32.7180191 64.183963,32.2921985 64.1747882,31.8653105 L64.1747882,27.7380702 L62.737912,27.7380702 L62.737912,31.398995 C62.7668508,31.8258051 62.7039958,32.2538155 62.5534241,32.6552629 C62.3902234,32.9614999 62.060274,33.1111385 61.542289,33.1111385 L57.1607034,33.1111385 C56.5707244,33.1481914 55.990201,32.9518748 55.5488576,32.5660577 C55.1075141,32.1802406 54.8421384,31.6370826 54.8120317,31.0579583 C54.5956133,28.9699784 53.4496601,27.7519901 51.6686432,27.7519901 L47.4928325,27.7519901 C45.3286485,27.7519901 44.2323651,29.1230969 44.2323651,31.8339908 L44.2323651,36.7685833 L45.6515022,36.7685833 L45.6515022,31.8757504 C45.6515022,30.0870476 46.3326879,29.0221779 47.4750932,29.0221779 L48.9580914,29.0221779 C48.5475192,29.6361952 48.3382938,30.3587242 48.358506,31.0927579 C48.358506,33.1424582 49.6144423,34.4648455 51.5515644,34.4648455 C52.6099868,34.5247285 53.6156869,34.0067369 54.1663243,33.1180984 C54.7233356,34.0402896 55.7486621,34.510085 57.2281125,34.510085 L91.1809658,34.510085 C91.7452411,34.5247945 92.3098337,34.4968723 92.8697389,34.4265658 C93.4555383,34.3029404 94.0173231,34.0879302 94.533677,33.789732 C95.0423058,34.08816 95.597133,34.303259 96.1763281,34.4265658 C96.7315086,34.496529 97.2913578,34.5244513 97.8509098,34.510085 L108.583134,34.510085 C109.647486,34.510085 110.892779,34.0472495 110.892779,31.8409507 M94.5443205,28.0686671 C95.0372651,28.0437592 95.5171388,28.2289915 95.8605701,28.5767422 C96.1684653,28.8991168 96.3320017,29.3289593 96.314694,29.7703707 C96.3060623,30.2530303 96.1449085,30.7211629 95.8534745,31.1101578 C95.5321801,31.5708179 95.0844253,31.9327864 94.5620598,32.1541477 C94.026632,31.9401076 93.5666587,31.5772336 93.2387145,31.1101578 C92.9494445,30.7198398 92.7941415,30.2494391 92.7952342,29.7668907 C92.7729864,29.3083032 92.9512437,28.8621853 93.2852476,28.5405522 C93.6192515,28.2189191 94.0772776,28.0523203 94.5443205,28.0825869 M81.4350423,32.4499449 C81.4350423,32.6622228 81.4350423,32.8849407 81.4102074,33.1111385 L74.8857249,33.1111385 C75.6201283,30.9187596 77.5749896,29.0500176 79.1857101,29.0500176 C80.5729165,29.0500176 81.4350423,30.3515251 81.4350423,32.4499449 M51.5799471,33.1250584 C50.6149339,33.1250584 50.0366356,32.3942654 50.0366356,31.1623573 C50.0366356,29.8295301 50.6184818,29.0743774 51.6331647,29.0743774 C52.5768909,29.0743774 53.1161629,29.7703707 53.1161629,31.0231586 C53.1161629,32.9162604 52.2398458,33.1354983 51.5799471,33.1354983" id="Shape" fill="#fff"/><rect id="Rectangle" fill="#fff" x="113.643154" y="25.0445762" width="1.36099585" height="9.1186722"/><path d="M140.182573,32.6200885 C140.182573,29.7241585 138.268631,27.8536616 135.311362,27.8536616 C133.714648,27.8536616 132.491558,28.3580278 131.645617,29.3533993 L131.522251,29.4970267 L131.659716,29.6306337 C132.117934,30.0581758 132.364667,30.2986682 132.509182,30.448976 L132.706568,30.6594069 L132.861657,30.4189145 C133.386846,29.5938918 134.194015,29.1964112 135.328986,29.1964112 C137.42269,29.1964112 138.575285,30.3855127 138.575285,32.5365841 C138.575285,32.6234286 138.575285,32.7136133 138.575285,32.8104783 L125.42795,32.8104783 C125.216465,29.386801 123.570404,27.6499111 120.528541,27.6499111 L120.310006,27.6499111 L120.310006,28.9525785 L120.895116,28.9525785 C121.889965,28.9523753 122.813006,29.443526 123.330721,30.2485657 C123.78115,31.033792 124.007155,31.916955 123.986325,32.8104783 L118.406639,32.8104783 L118.406639,34.1632484 L140.182573,34.1632484 L140.182573,32.6200885 Z" id="Path" fill="#fff"/><rect id="Rectangle" fill="#fff" x="134.738589" y="35.4659158" width="1.36099585" height="1.30266746"/><path d="M144.339881,34.2740754 L158.31756,34.2740754 C158.899537,35.0662343 159.862163,35.5146685 160.866949,35.4616948 C161.756787,35.494637 162.612797,35.1304378 163.187771,34.4742741 C163.741489,33.8229197 164.029156,32.9986037 163.996542,32.1567197 C164.034685,31.3138979 163.756232,30.4861193 163.212386,29.8255925 C162.625427,29.1829014 161.767804,28.8321494 160.881014,28.8721038 C159.993365,28.8338623 159.134009,29.1782427 158.535577,29.8120197 C157.951597,30.472245 157.645438,31.3197964 157.677576,32.1872585 C157.677496,32.4308935 157.701041,32.6740013 157.747904,32.9134029 C152.853079,32.9134029 144.797012,32.9134029 144.578996,32.9134029 C144.320034,32.9013854 144.080732,32.7765648 143.928462,32.5740831 C143.734721,32.1918862 143.650924,31.7664883 143.685831,31.3423521 L143.685831,25.0445762 L142.230042,25.0445762 L142.230042,31.8988366 C142.182084,32.5621144 142.424421,33.2144241 142.898158,33.6972317 C143.274799,34.0724014 143.795102,34.2810872 144.336364,34.2740754 M160.863432,34.1790658 C160.383838,34.2061564 159.924671,33.9884806 159.653791,33.6056153 C159.389759,33.192627 159.259937,32.7128048 159.281053,32.2279769 C159.25343,31.7157125 159.383092,31.206974 159.653791,30.7655084 C159.926818,30.3504889 160.411057,30.1103625 160.919694,30.1377667 C161.386155,30.1097603 161.831689,30.3279697 162.083622,30.707824 C162.325056,31.1209248 162.440842,31.5913628 162.41768,32.0651033 C162.41768,33.4902466 161.911319,34.182459 160.863432,34.182459" id="Shape" fill="#fff"/><path d="M17.5424593,17.9364771 C16.6667297,18.2106655 15.8312219,18.5885065 15.0558443,19.060997 C10.7275578,21.6047154 8.78914473,26.2789249 8.60641078,30.8041017 C8.60641078,31.0615219 8.60641078,31.315555 8.60641078,31.5729753 L8.60641078,31.5729753 C8.60641078,31.6000721 8.60641078,31.7287823 8.60641078,31.7728147 L8.60641078,47.8412567 L14.2389161,47.8412567 L14.2389161,31.7694276 C14.2357563,30.7955832 14.6930669,29.8713428 15.4858066,29.249419 L17.7072781,31.7694276 L19.9287497,29.249419 C20.7214894,29.8713428 21.1788,30.7955832 21.1756402,31.7694276 L21.1756402,47.8378696 L26.8045625,47.8378696 L26.8045625,31.7694276 C26.8034591,28.9184214 25.3089331,26.2529471 22.8136515,24.6516718 C20.3183699,23.0503966 17.1461938,22.721149 14.3428236,23.7724648 L14.3428236,23.7724648 C15.4965556,22.4921378 17.2379027,21.8587485 19.1440686,21.8214903 L19.1440686,21.8214903 C19.7528929,21.8082767 20.3615591,21.853672 20.9606591,21.9569747 C25.944638,22.7292354 29.7390547,26.6752166 29.7605528,31.4408781 C29.7605528,31.6203948 29.7605528,31.8066858 29.7605528,31.9895896 L29.7605528,47.8412567 L35.3858921,47.8412567 C35.3858921,47.8412567 35.3858921,31.9794283 35.3858921,31.8574924 C35.3858921,24.9342429 30.9859452,19.3827723 23.4866872,17.7298635 C23.2107948,17.6722826 22.7700835,17.590992 22.3902835,17.5401854 C21.8229169,17.4624613 21.2508313,17.4194684 20.6776006,17.4114753 C19.6124924,17.412081 18.5559118,17.5909723 17.5567913,17.9398642 M16.4818858,17.2285714 C6.77190523,17.2285714 0,23.4134313 0,31.6170077 L0,47.8412567 L5.60025814,47.8412567 C5.60025814,47.8412567 5.60025814,38.9162262 5.60025814,31.6068464 C5.60025814,23.9756913 11.723637,18.5326081 17.864931,17.3538944 C18.1157423,17.3030878 18.4095498,17.2285714 18.1193253,17.2285714 L16.4818858,17.2285714 Z" id="Shape" fill="#B4975A"/><path d="M2.81445962,7.73522517 C5.05786947,7.73522517 5.75128705,6.9641623 5.75128705,5.71484523 C5.75128705,4.75833685 5.04767215,4.14343861 4.25228139,4.00679455 C4.94569897,3.81158876 5.39438094,3.19669052 5.39438094,2.59155257 C5.39438094,1.38127666 4.58879286,0.766378414 2.85524889,0.766378414 C2.24340984,0.766378414 1.12170492,0.844460731 0.876969303,0.903022468 L0.876969303,7.63762228 C1.40722981,7.69618402 1.79472787,7.73522517 2.81445962,7.73522517 Z M2.73288108,3.74326674 L1.89670105,3.74326674 L1.89670105,1.70336621 C2.22301521,1.65456477 2.48814546,1.6252839 2.81445962,1.6252839 C4.01774308,1.6252839 4.33385993,1.98641461 4.33385993,2.61107314 C4.33385993,3.23573168 3.93616454,3.74326674 2.73288108,3.74326674 Z M3.12037915,6.87631969 C2.5085401,6.87631969 2.22301521,6.8665594 1.89670105,6.83727853 L1.89670105,4.56313106 L3.01840597,4.56313106 C4.30326797,4.56313106 4.69076604,5.04138525 4.69076604,5.69532465 C4.69076604,6.34926405 4.34405724,6.87631969 3.12037915,6.87631969 Z M8.06607812,7.65714286 L8.06607812,4.7095354 C8.06607812,3.89943137 8.36180033,3.46021834 9.24896695,3.46021834 C9.41212403,3.46021834 9.56508379,3.48949921 9.7486355,3.54806094 L9.7486355,2.62083343 C9.66705696,2.60131285 9.54468915,2.58179228 9.38153207,2.58179228 C8.85127156,2.58179228 8.31081374,2.88436125 8.01509153,3.32357428 C8.01509153,3.08932733 8.00489421,2.87460096 7.92331568,2.67939517 L7.07693832,2.67939517 L7.07693832,7.65714286 L8.06607812,7.65714286 Z M12.6038844,7.77426633 C14.0722981,7.77426633 14.9288728,6.72991535 14.9288728,5.16826901 C14.9288728,3.60662268 14.0722981,2.5622717 12.6038844,2.5622717 C11.1354707,2.5622717 10.278896,3.60662268 10.278896,5.16826901 C10.278896,6.72991535 11.1354707,7.77426633 12.6038844,7.77426633 Z M12.6038844,6.97392259 C11.6657312,6.97392259 11.2986278,6.24190087 11.2986278,5.16826901 C11.2986278,4.09463716 11.6657312,3.36261544 12.6038844,3.36261544 C13.5420376,3.36261544 13.909141,4.09463716 13.909141,5.16826901 C13.909141,6.24190087 13.5420376,6.97392259 12.6038844,6.97392259 Z M17.8351083,7.78402662 C18.6916829,7.78402662 19.1709568,7.4326562 19.4768764,6.88607998 C19.4768764,7.12032693 19.497271,7.46193707 19.5788495,7.65714286 L20.4252269,7.65714286 L20.4252269,2.67939517 L19.4360871,2.67939517 L19.4360871,5.19754988 C19.4360871,6.42734637 18.9466159,6.92512114 18.1104358,6.92512114 C17.6515565,6.92512114 17.376229,6.70063448 17.2640585,6.36878463 C17.1981681,6.17057568 17.1670331,6.03058194 17.162633,5.42678563 L17.1620853,2.67939517 L16.1729455,2.67939517 L16.1729455,5.58796147 C16.1729455,6.18333913 16.2239321,6.59327129 16.3666945,6.90560056 C16.6624167,7.54977967 17.2946504,7.78402662 17.8351083,7.78402662 Z M23.7801443,9.70680367 C25.1771768,9.70680367 26.2478952,8.81861732 26.2478952,7.26673127 L26.2478952,2.67939517 L25.4015178,2.67939517 C25.3199393,2.87460096 25.2995446,3.06004647 25.2995446,3.29429342 C24.9936251,2.85508038 24.5653378,2.5622717 23.9127095,2.5622717 C22.4442958,2.5622717 21.7508782,3.60662268 21.7508782,5.05114554 C21.7508782,6.4956684 22.4442958,7.54001938 23.9127095,7.54001938 C24.5347458,7.54001938 24.9426385,7.27649156 25.2587554,6.87631969 L25.2587554,7.32529301 C25.2587554,8.11587647 24.8100734,8.88693934 23.7903417,8.88693934 C23.1785026,8.88693934 22.6074528,8.67221297 22.1587709,8.34036313 L22.1587709,9.25783035 C22.4442958,9.4920773 22.9643589,9.70680367 23.7801443,9.70680367 Z M24.0146826,6.73967564 C23.0765294,6.73967564 22.7706099,6.00765392 22.7706099,5.05114554 C22.7706099,4.09463716 23.0765294,3.36261544 24.0146826,3.36261544 C24.9528359,3.36261544 25.2587554,4.09463716 25.2587554,5.05114554 C25.2587554,6.00765392 24.9528359,6.73967564 24.0146826,6.73967564 Z M28.8686058,7.65714286 L28.8686058,5.13898815 C28.8686058,3.90919166 29.3784716,3.41141689 30.2146517,3.41141689 C30.673531,3.41141689 30.9488585,3.63590355 31.061029,3.9677534 C31.1324102,4.18247977 31.1630022,4.32888411 31.1630022,5.07066612 L31.1630022,7.65714286 L32.152142,7.65714286 L32.152142,4.74857656 C32.152142,4.1531989 32.1011554,3.74326674 31.958393,3.43093747 C31.6626707,2.78675836 31.0304371,2.55251141 30.4899792,2.55251141 C29.6334046,2.55251141 29.1541307,2.91364212 28.8686058,3.42117718 L28.8686058,0.590693202 L27.879466,0.590693202 L27.879466,7.65714286 L28.8686058,7.65714286 Z M35.4866648,7.73522517 C35.8945575,7.73522517 36.2412663,7.65714286 36.3636341,7.6181017 L36.3636341,6.78847708 C36.2412663,6.84703882 35.8741629,6.93488143 35.6294272,6.93488143 C35.0175882,6.93488143 34.915615,6.73967564 34.915615,5.97837305 L34.915615,3.43093747 L36.200477,3.43093747 L36.200477,2.67939517 L34.915615,2.67939517 L34.915615,1.23487231 C34.4057491,1.28367376 34.0284484,1.43007811 33.9264752,1.47887955 L33.9264752,2.67939517 L33.212663,2.67939517 L33.212663,3.43093747 L33.9264752,3.43093747 L33.9264752,6.01741421 C33.9264752,7.11056664 34.3445652,7.73522517 35.4866648,7.73522517 Z M41.594858,7.73522517 C42.0027507,7.73522517 42.3494595,7.65714286 42.4718273,7.6181017 L42.4718273,6.78847708 C42.3494595,6.84703882 41.982356,6.93488143 41.7376204,6.93488143 C41.1257814,6.93488143 41.0238082,6.73967564 41.0238082,5.97837305 L41.0238082,3.43093747 L42.3086702,3.43093747 L42.3086702,2.67939517 L41.0238082,2.67939517 L41.0238082,1.23487231 C40.5139423,1.28367376 40.1366416,1.43007811 40.0346684,1.47887955 L40.0346684,2.67939517 L39.3208562,2.67939517 L39.3208562,3.43093747 L40.0346684,3.43093747 L40.0346684,6.01741421 C40.0346684,7.11056664 40.4527584,7.73522517 41.594858,7.73522517 Z M45.5514171,7.77426633 C47.0198309,7.77426633 47.8764055,6.72991535 47.8764055,5.16826901 C47.8764055,3.60662268 47.0198309,2.5622717 45.5514171,2.5622717 C44.0830034,2.5622717 43.2264288,3.60662268 43.2264288,5.16826901 C43.2264288,6.72991535 44.0830034,7.77426633 45.5514171,7.77426633 Z M45.5514171,6.97392259 C44.6132639,6.97392259 44.2461605,6.24190087 44.2461605,5.16826901 C44.2461605,4.09463716 44.6132639,3.36261544 45.5514171,3.36261544 C46.4895704,3.36261544 46.8566738,4.09463716 46.8566738,5.16826901 C46.8566738,6.24190087 46.4895704,6.97392259 45.5514171,6.97392259 Z M51.649413,9.70680367 C52.8730911,9.70680367 53.4543382,8.66245268 53.8622309,7.78402662 C54.6780163,6.0271745 55.3204473,4.25080179 55.6875507,2.67939517 L54.637227,2.67939517 C54.3924914,4.04583571 53.8418362,5.72460552 53.2911811,6.95440201 C53.2707865,6.72015506 53.2299972,6.32974347 53.0668401,5.9295716 C52.8832884,5.48059828 52.3734225,4.04583571 52.0878976,2.67939517 L51.0375739,2.67939517 C51.4862559,4.4362473 52.2102655,6.22238029 52.4346064,6.72991535 C52.5569742,7.00320346 52.7201313,7.42289591 52.7201313,7.81330749 C52.7201313,8.37940429 52.2408574,8.90645992 51.649413,8.90645992 C51.4046774,8.90645992 51.0579686,8.80885703 50.9356008,8.75029529 L50.9356008,9.59944048 C51.0579686,9.65800222 51.3434935,9.70680367 51.649413,9.70680367 Z M58.6039835,7.77426633 C60.0723972,7.77426633 60.9289719,6.72991535 60.9289719,5.16826901 C60.9289719,3.60662268 60.0723972,2.5622717 58.6039835,2.5622717 C57.1355698,2.5622717 56.2789951,3.60662268 56.2789951,5.16826901 C56.2789951,6.72991535 57.1355698,7.77426633 58.6039835,7.77426633 Z M58.6039835,6.97392259 C57.6658303,6.97392259 57.2987269,6.24190087 57.2987269,5.16826901 C57.2987269,4.09463716 57.6658303,3.36261544 58.6039835,3.36261544 C59.5421367,3.36261544 59.9092401,4.09463716 59.9092401,5.16826901 C59.9092401,6.24190087 59.5421367,6.97392259 58.6039835,6.97392259 Z M63.8352074,7.78402662 C64.691782,7.78402662 65.171056,7.4326562 65.4769755,6.88607998 C65.4769755,7.12032693 65.4973701,7.46193707 65.5789487,7.65714286 L66.425326,7.65714286 L66.425326,2.67939517 L65.4361862,2.67939517 L65.4361862,5.19754988 C65.4361862,6.42734637 64.946715,6.92512114 64.1105349,6.92512114 C63.6516557,6.92512114 63.3763281,6.70063448 63.2641576,6.36878463 C63.1982672,6.17057568 63.1671322,6.03058194 63.1627321,5.42678563 L63.1621844,2.67939517 L62.1730446,2.67939517 L62.1730446,5.58796147 C62.1730446,6.18333913 62.2240312,6.59327129 62.3667937,6.90560056 C62.6625159,7.54977967 63.2947495,7.78402662 63.8352074,7.78402662 Z M72.5233219,7.77426633 C73.9713409,7.77426633 74.8381129,6.71039477 74.8381129,5.16826901 C74.8381129,3.684705 74.2466685,2.5622717 72.8394387,2.5622717 C72.2174023,2.5622717 71.6973391,2.84532009 71.371025,3.35285515 L71.371025,0.590693202 L70.3818852,0.590693202 L70.3818852,4.94378235 C70.3818852,6.41758608 70.5756342,7.77426633 72.5233219,7.77426633 Z M72.5233219,6.97392259 C71.6769445,6.97392259 71.3506303,6.48590811 71.3506303,5.16826901 C71.3506303,4.09463716 71.6871418,3.4016566 72.625295,3.4016566 C73.5634482,3.4016566 73.8183812,4.09463716 73.8183812,5.16826901 C73.8183812,6.24190087 73.4614751,6.97392259 72.5233219,6.97392259 Z M76.1025803,9.70680367 C77.3262584,9.70680367 77.9075055,8.66245268 78.3153982,7.78402662 C79.1311836,6.0271745 79.7736146,4.25080179 80.140718,2.67939517 L79.0903943,2.67939517 C78.8456587,4.04583571 78.2950035,5.72460552 77.7443484,6.95440201 C77.7239538,6.72015506 77.6831645,6.32974347 77.5200074,5.9295716 C77.3364557,5.48059828 76.8265898,4.04583571 76.5410649,2.67939517 L75.4907412,2.67939517 C75.9394232,4.4362473 76.6634327,6.22238029 76.8877737,6.72991535 C77.0101415,7.00320346 77.1732986,7.42289591 77.1732986,7.81330749 C77.1732986,8.37940429 76.6940247,8.90645992 76.1025803,8.90645992 C75.8578447,8.90645992 75.5111359,8.80885703 75.3887681,8.75029529 L75.3887681,9.59944048 C75.5111359,9.65800222 75.7966608,9.70680367 76.1025803,9.70680367 Z" id="Broughttoyouby" fill="#fff"/></g></svg>