<svg xmlns="http://www.w3.org/2000/svg" data-testid="CartInverse" viewBox="0 0 24 24" class="css-ekjjru"><path fill-rule="evenodd" clip-rule="evenodd" d="M5.75 20C6.7165 20 7.5 20.7835 7.5 21.75C7.5 22.7165 6.7165 23.5 5.75 23.5C4.7835 23.5 4 22.7165 4 21.75C4 20.7835 4.7835 20 5.75 20ZM19.75 20C20.7165 20 21.5 20.7835 21.5 21.75C21.5 22.7165 20.7165 23.5 19.75 23.5C18.7835 23.5 18 22.7165 18 21.75C18 20.7835 18.7835 20 19.75 20ZM4.5 0V4H21.7106L19.3356 13.5H4.5V14.75C4.5 15.3972 4.99187 15.9295 5.62219 15.9935L5.75 16H22.5V17.5H5.75C4.28747 17.5 3.0916 16.3583 3.00502 14.9175L3 14.75V1.5H0V0H4.5ZM19.789 5.5H4.5V12H18.164L19.789 5.5Z" fill="#0E5AA7"/></svg>