<svg width="20" height="20" viewBox="0 0 24 24" fill="none" xmlns="http://www.w3.org/2000/svg" class="css-1oteowz"><path d="M11.6113 0.480534C11.8114 0.233154 12.1886 0.233155 12.3887 0.480534L13.889 2.3351C14.0341 2.51444 14.283 2.57126 14.4915 2.47263L16.6479 1.45266C16.9355 1.3166 17.2754 1.48027 17.3483 1.78998L17.8954 4.11183C17.9483 4.33635 18.1479 4.49555 18.3786 4.49716L20.7639 4.51381C21.0821 4.51603 21.3173 4.81095 21.2487 5.12165L20.7341 7.45091C20.6843 7.67615 20.7951 7.90619 21.0022 8.00773L23.1441 9.05769C23.4299 9.19775 23.5138 9.56551 23.3171 9.81566L21.8429 11.691C21.7004 11.8723 21.7004 12.1277 21.8429 12.309L23.3171 14.1843C23.5138 14.4345 23.4299 14.8023 23.1441 14.9423L21.0022 15.9923C20.7951 16.0938 20.6843 16.3239 20.7341 16.5491L21.2487 18.8783C21.3173 19.189 21.0821 19.484 20.7639 19.4862L18.3786 19.5028C18.1479 19.5044 17.9483 19.6636 17.8954 19.8882L17.3483 22.21C17.2754 22.5197 16.9355 22.6834 16.6479 22.5473L14.4915 21.5274C14.283 21.4287 14.0341 21.4856 13.889 21.6649L12.3887 23.5195C12.1886 23.7668 11.8114 23.7668 11.6113 23.5195L10.111 21.6649C9.96593 21.4856 9.717 21.4287 9.50848 21.5274L7.35212 22.5473C7.06449 22.6834 6.72462 22.5197 6.65166 22.21L6.10463 19.8882C6.05174 19.6636 5.85211 19.5044 5.62145 19.5028L3.23609 19.4862C2.91791 19.484 2.68271 19.189 2.75135 18.8783L3.26591 16.5491C3.31567 16.3239 3.20488 16.0938 2.99776 15.9923L0.855852 14.9423C0.570144 14.8023 0.486204 14.4345 0.682851 14.1843L2.15708 12.309C2.29964 12.1277 2.29964 11.8723 2.15708 11.691L0.68285 9.81566C0.486204 9.56551 0.570144 9.19775 0.855852 9.05769L2.99776 8.00773C3.20489 7.90619 3.31567 7.67615 3.26591 7.45091L2.75135 5.12165C2.68271 4.81095 2.91791 4.51603 3.23609 4.51381L5.62145 4.49716C5.85211 4.49555 6.05174 4.33635 6.10463 4.11183L6.65166 1.78998C6.72462 1.48027 7.06449 1.3166 7.35213 1.45266L9.50848 2.47263C9.717 2.57126 9.96593 2.51444 10.111 2.3351L11.6113 0.480534Z" fill="#0E5AA7"/><path fill-rule="evenodd" clip-rule="evenodd" d="M11.8938 7.20001C9.13022 7.20001 7.19995 8.93942 7.19995 11.2455V15.8065H8.8035C8.8035 15.8065 8.80219 13.2973 8.80219 11.2422C8.80219 9.0971 10.5445 7.56716 12.293 7.23509C12.3642 7.22113 12.4476 7.20001 12.3646 7.20001H11.8938Z" fill="white"/><path fill-rule="evenodd" clip-rule="evenodd" d="M12.4058 7.34861C12.1942 7.41378 11.9847 7.49428 11.6829 7.66726C10.4235 8.38635 9.859 9.70853 9.80201 10.9881C9.79832 11.061 9.79736 11.1333 9.79736 11.2057C9.79736 11.2128 9.79602 11.2494 9.79602 11.2615V15.8065H11.4344V11.2615C11.4344 10.9745 11.5759 10.7183 11.7979 10.5484L12.4443 11.2615L13.0898 10.5485C13.3118 10.7183 13.4536 10.9745 13.4536 11.2615V15.8065H15.0917V11.2615C15.0917 9.91773 13.9061 8.8284 12.4443 8.8284C12.0982 8.8284 11.7678 8.88915 11.4655 9.0003C11.801 8.63829 12.3079 8.45857 12.862 8.44756H12.8633C13.0363 8.44375 13.214 8.45703 13.3921 8.48604C14.8419 8.70423 15.9464 9.82077 15.952 11.1674C15.9548 11.2187 15.9558 11.2706 15.9558 11.3234V15.8065H17.5949V11.2856C17.5949 9.32754 16.3143 7.75754 14.1316 7.29013C14.052 7.27352 13.9257 7.25011 13.8127 7.23622C13.6513 7.21652 13.4858 7.20001 13.3148 7.20001C12.9602 7.20001 12.7026 7.25772 12.4058 7.34861Z" fill="white"/></svg>