<svg data-testid="CarrefourNewLogo" width="128" height="32" viewBox="0 0 128 32" fill="none" xmlns="http://www.w3.org/2000/svg" class="css-1bah3pf"><g id="carrefour-new-logo"><path id="Carrefour" fill-rule="evenodd" clip-rule="evenodd" d="M127.247 11.2469V5.41651L118.906 5.42338V5.07991L123.653 1.90797L123.342 1.27599L116.908 4.02374V7.48763H125.118V9.22043H99.6305V3.30417L99.8034 1.27599H99.5405C98.7653 2.05288 97.7121 2.49369 96.6107 2.50217V2.75462C97.2316 2.84049 97.5412 3.13587 97.5412 3.72664V11.2469V11.2555H127.247V11.2469ZM55.9518 8.7516L55.9915 9.22043L53.9939 9.21871C54.2188 8.07668 54.7515 7.52885 55.5505 7.40004C55.7559 7.82645 55.8914 8.28272 55.9518 8.7516ZM83.8452 4.44449L83.8902 6.47268H82.6934C82.159 6.47268 81.8926 6.26316 81.8926 5.79776C81.8926 5.16406 82.555 4.69866 83.8452 4.44449ZM58.0825 11.2486H86.1974L86.2441 2.41631C84.5543 2.41631 83.0946 2.79756 81.8079 3.55834C80.4744 4.36206 79.8068 5.28943 79.8068 6.26316C79.8123 6.90257 80.1054 7.50607 80.6059 7.90838C81.0935 8.30321 81.7063 8.51372 82.3354 8.50258H84.0217V9.22043H58.079V9.09335C57.8092 7.23289 57.2766 5.92313 56.481 5.16406C55.7287 5.29177 54.997 5.51875 54.3053 5.83898C53.7688 6.06091 53.2856 6.39271 52.8871 6.81271C52.4771 7.36641 52.189 7.99948 52.0413 8.67088L51.8684 9.93657L51.9134 11.2486H55.8238C55.7402 11.805 55.4372 12.3055 54.9815 12.6397C54.0571 13.3365 52.7738 13.3195 51.8684 12.5985C51.4126 12.2577 51.0719 11.7876 50.8912 11.2503H50.5349C50.7148 12.3031 51.2043 13.1068 51.9566 13.6546C52.6491 14.1998 53.5136 14.4839 54.3969 14.4566C55.2066 14.446 55.9948 14.1961 56.6608 13.7388C57.3135 13.2598 57.7831 12.575 57.9926 11.7965L58.0825 11.2486ZM93.3627 5.96606L93.4924 6.6427L94.2136 8.00112C94.6097 8.80483 94.8345 9.56562 94.8345 10.2852C94.8345 11.5509 94.4333 12.5641 93.5893 13.409C92.8352 14.1698 91.993 14.5511 90.9708 14.5511C90.2148 14.5439 89.4765 14.3236 88.8418 13.9157C88.2879 13.5651 87.843 13.0687 87.5568 12.4817C88.1929 12.9629 88.9745 13.2159 89.774 13.1995C90.5003 13.2135 91.2023 12.9397 91.7249 12.4387C92.2143 11.8892 92.5239 11.2967 92.5239 10.4964C92.5181 9.95903 92.3312 9.43905 91.993 9.0195C91.6427 8.61623 91.1444 8.36887 90.6094 8.33256V8.11961C91.7999 7.83565 92.8059 7.04886 93.3627 5.96606ZM48.1828 5.96606L48.3177 6.6427L48.9801 8.00112C49.424 8.8472 49.646 9.60855 49.646 10.2852C49.6608 11.4396 49.233 12.5564 48.4491 13.409C47.6518 14.1698 46.7611 14.5511 45.7874 14.5511C45.0294 14.5505 44.2881 14.3296 43.655 13.9157C43.0905 13.5898 42.6531 13.0846 42.4132 12.4817C43.0335 12.9627 43.802 13.2163 44.5889 13.1995C45.3151 13.2131 46.017 12.9394 46.5398 12.4387C47.0681 11.9307 47.3584 11.2265 47.3405 10.4964C47.355 9.95503 47.1643 9.42797 46.8061 9.0195C46.4587 8.61821 45.9644 8.37099 45.4329 8.33256V8.11961C46.6171 7.8244 47.6177 7.04074 48.1828 5.96606ZM80.9673 2.16386H80.9241C80.646 2.16511 80.3786 2.05707 80.1804 1.86332C79.9504 1.65963 79.8199 1.36736 79.8224 1.06132C79.8394 0.783884 79.9685 0.525014 80.1804 0.343469C80.3765 0.135893 80.6465 0.0126328 80.9328 0C81.2465 0.0103306 81.546 0.132223 81.7768 0.343469C81.9852 0.526387 82.11 0.785405 82.1227 1.06132C82.1139 1.34258 82.0048 1.61161 81.8148 1.82039C81.5767 2.02214 81.2796 2.14255 80.9673 2.16386ZM106.002 23.0468C105.125 22.205 103.882 21.7227 102.455 21.721C102.456 21.721 102.457 21.721 102.458 21.721H102.448C102.45 21.721 102.453 21.721 102.455 21.721C99.7931 21.7258 97.4288 23.6609 97.4288 26.5055C97.4026 27.8185 97.9284 29.083 98.8799 29.9952C99.827 30.8689 101.077 31.3457 102.37 31.3261C103.695 31.3529 104.98 30.8727 105.959 29.9849C106.907 29.0752 107.43 27.8143 107.403 26.5055C107.403 25.0904 106.881 23.89 106.002 23.0468ZM104.722 26.6429C104.707 28.7638 103.767 29.8492 102.474 29.8492H102.482C101.348 29.8492 100.189 28.7621 100.189 26.2428C100.198 24.2816 101.033 23.1275 102.379 23.1275C103.056 23.1323 103.683 23.4802 104.042 24.0497C104.466 24.6491 104.722 25.5352 104.722 26.6429ZM123.494 23.1155C124.025 22.2877 124.867 21.7416 125.699 21.7416L125.698 21.7433C126.479 21.7433 127.265 22.2259 127.265 23.1464C127.272 23.4948 127.14 23.832 126.897 24.0834C126.654 24.3348 126.32 24.4796 125.969 24.4859C125.384 24.5083 124.863 24.1207 124.72 23.5568C124.262 23.6977 123.61 24.2438 123.61 26.1329V28.4513C123.619 29.2086 123.721 29.504 123.956 29.674C124.188 29.8416 124.65 29.9241 124.829 29.956L124.836 29.9574H124.888L124.911 30.0038C124.985 30.1429 125.027 30.2965 125.035 30.4537C125.039 30.7628 124.793 30.9655 124.399 31.0788C124.004 31.1922 123.425 31.2317 122.636 31.2317C122.02 31.2549 121.403 31.2012 120.8 31.0719C120.378 30.9638 120.108 30.7491 120.108 30.4194C120.115 30.2745 120.153 30.1328 120.22 30.0038L120.243 29.9574H120.295C120.533 29.9138 120.757 29.8169 120.952 29.674C121.201 29.4817 121.298 29.2103 121.298 28.4513V24.613C121.28 23.969 121.123 23.744 120.559 23.7286C120.408 23.7307 120.257 23.7463 120.108 23.7749L120.023 23.787L119.988 23.7114C119.932 23.5812 119.902 23.4411 119.9 23.2992C119.916 22.5333 120.8 22.1332 121.391 21.9614C121.608 21.8972 121.834 21.8631 122.06 21.8601C122.87 21.8584 123.311 22.4079 123.494 23.1155ZM69.198 23.1138C69.7307 22.298 70.5765 21.7588 71.4049 21.7588L71.4014 21.7605C72.1728 21.7605 72.9684 22.2431 72.9684 23.1653C72.9758 23.5152 72.8419 23.8535 72.5966 24.1048C72.3514 24.3561 72.015 24.4995 71.6626 24.5031C71.0801 24.5261 70.5621 24.1381 70.4243 23.5757C69.9625 23.7131 69.307 24.2627 69.2984 26.1517V28.465C69.3018 29.2241 69.4333 29.5195 69.6581 29.6895C69.8774 29.8553 70.3403 29.9378 70.5234 29.9705L70.5367 29.9728L70.5886 29.9814L70.6093 30.0278C70.6838 30.1655 70.7258 30.3182 70.7321 30.4743C70.7356 30.7851 70.4883 30.9912 70.0922 31.1029C69.6961 31.2145 69.1133 31.2557 68.3246 31.2557C67.7075 31.2779 67.09 31.2243 66.4862 31.096C66.0694 30.9861 65.803 30.768 65.803 30.4434C65.8084 30.2982 65.8468 30.1561 65.9154 30.0278L65.9379 29.9814L65.9915 29.9728C66.2309 29.9272 66.4578 29.8318 66.6574 29.6929C66.903 29.4954 67.0033 29.2258 67.0033 28.465V24.6285C66.9826 23.9845 66.8252 23.7578 66.2579 23.7423C66.108 23.7443 65.9586 23.7604 65.8117 23.7904L65.7217 23.8024L65.6906 23.7269C65.6327 23.5952 65.6021 23.4532 65.6007 23.3095C65.6145 22.5453 66.4983 22.1486 67.0967 21.9769C67.31 21.913 67.5312 21.8789 67.7539 21.8756C68.5685 21.8738 69.0061 22.4165 69.198 23.1138ZM118.982 29.5538L119.06 29.5435L119.077 29.6122C119.126 29.7253 119.153 29.8464 119.157 29.9694C119.122 30.7714 118.027 31.0908 117.393 31.2111C117.194 31.2466 116.994 31.2684 116.792 31.2763H116.775C116.277 31.2763 115.947 31.1114 115.737 30.835C115.562 30.5719 115.441 30.2763 115.383 29.966C115.284 30.0707 115.168 30.1841 114.995 30.3404C114.328 30.9372 113.46 31.2654 112.562 31.2609C111.526 31.2609 110.644 30.8813 110.082 30.2511C109.217 29.2739 109.217 28.0322 109.217 26.2685V24.5924C109.196 23.902 108.968 23.6702 108.299 23.6513C108.203 23.6522 108.108 23.6579 108.013 23.6685H107.932L107.903 23.5981C107.853 23.4823 107.827 23.3581 107.825 23.2323C107.854 22.4131 108.94 21.9734 109.584 21.8446C109.796 21.8073 110.011 21.7849 110.227 21.7777C110.751 21.7777 111.139 21.9374 111.382 22.2259C111.63 22.5541 111.752 22.9586 111.728 23.3679L111.709 26.2685C111.709 27.3281 111.798 28.1422 112.05 28.6539C112.303 29.1657 112.687 29.413 113.39 29.413C114.153 29.4096 114.62 29.1021 114.914 28.6333C115.208 28.1645 115.315 27.5376 115.315 26.9331V24.5872C115.298 23.8969 115.068 23.6633 114.399 23.6461C114.303 23.647 114.208 23.6527 114.113 23.6633H114.032L114.001 23.5929C113.95 23.4774 113.924 23.353 113.923 23.2271C113.944 22.4079 115.039 21.9683 115.685 21.8395C115.897 21.8021 116.112 21.7797 116.327 21.7725C116.853 21.7725 117.239 21.9322 117.486 22.2207C117.734 22.5477 117.857 22.9522 117.832 23.3611C117.832 23.4499 117.83 23.5576 117.826 23.7151C117.817 24.1452 117.801 24.9471 117.801 26.7545C117.801 27.4974 117.79 27.9899 117.784 28.2741C117.782 28.3894 117.78 28.4704 117.78 28.52C117.801 29.2327 118.053 29.5538 118.745 29.5641C118.781 29.5641 118.817 29.5617 118.854 29.5593C118.895 29.5566 118.937 29.5538 118.982 29.5538ZM83.5945 26.5021H89.6132L89.6443 26.4488C89.8677 26.0515 89.9806 25.6021 89.9712 25.1471C89.9657 24.265 89.6197 23.4186 89.0044 22.7823C88.3506 22.104 87.3527 21.6317 86.0054 21.6317C84.5267 21.6317 83.278 22.1503 82.4028 23.0348C81.5277 23.9192 81.0296 25.1626 81.0296 26.6034C81.0417 29.2361 83.2071 31.254 85.8722 31.254C88.489 31.2523 89.6772 30.0261 89.6772 29.0678C89.7018 28.7734 89.5659 28.4884 89.3209 28.3208L89.2379 28.2607L89.1739 28.3396C88.866 28.7123 87.9459 29.334 86.7526 29.334C84.8051 29.3271 83.6948 28.1645 83.5945 26.5021ZM87.4962 24.7229C87.5085 24.8393 87.4931 24.957 87.4513 25.0664V25.0595C87.4115 25.1145 87.3613 25.1608 87.1694 25.1608H83.617C83.7034 24.0944 84.2742 23.0382 85.6578 23.0382C86.7612 23.0382 87.479 23.8471 87.4962 24.7229ZM94.5457 22.0009H96.9964L97.0345 22.0662C97.1034 22.2192 97.1405 22.3846 97.1434 22.5522C97.149 23.0397 96.7687 23.446 96.2787 23.4761C96.0958 23.4917 95.9122 23.498 95.7287 23.495C95.5099 23.495 95.2917 23.4851 95.0901 23.4759C94.9172 23.468 94.7565 23.4607 94.6183 23.4607V28.4564C94.6183 29.2121 94.7498 29.4851 94.9954 29.6826C95.1934 29.8332 95.729 29.9209 95.9462 29.9565C95.9642 29.9594 95.98 29.962 95.9933 29.9643L96.0469 29.9728L96.0677 30.0209C96.131 30.1384 96.166 30.269 96.1697 30.4022C96.1697 30.7474 95.8705 30.9655 95.4243 31.0805C94.7929 31.2166 94.1468 31.2743 93.5011 31.2523C92.8815 31.2754 92.2614 31.2206 91.6557 31.0891C91.232 30.9792 90.9639 30.7645 90.9639 30.4365C90.9681 30.2924 91.0047 30.1509 91.0711 30.0226L91.0953 29.9763L91.1507 29.9677C91.3899 29.9241 91.6163 29.8279 91.8131 29.6861C92.0587 29.4903 92.159 29.2206 92.159 28.4599V23.4177L90.7321 23.3714L90.7079 23.313C90.6387 23.1636 90.601 23.0017 90.5972 22.8373C90.599 22.3478 91.0002 22.0198 91.4983 22.0198H92.1227V21.4617C92.1227 20.1118 92.389 19.3459 92.7505 18.8307C93.3057 18.0115 94.2707 17.4482 95.7425 17.4482C97.5931 17.45 99.1497 18.2657 99.1497 19.5777C99.1549 19.9179 99.0209 20.2455 98.7783 20.4857C98.5357 20.7259 98.2054 20.8581 97.8629 20.852C97.2143 20.8486 96.609 20.3334 96.609 19.6791C96.6135 19.4409 96.6868 19.2091 96.82 19.011C96.5485 18.8308 96.2262 18.7411 95.8999 18.7551C95.3292 18.7603 95.0092 18.9492 94.8103 19.26C94.6114 19.5709 94.5457 20.0346 94.5457 20.5498V22.0009ZM77.261 23.1103C77.792 22.2929 78.6377 21.7536 79.4679 21.7536L79.4748 21.7605C80.2444 21.7605 81.0417 22.2431 81.0417 23.1653C81.0487 23.5153 80.9144 23.8536 80.6688 24.1049C80.4233 24.3561 80.0868 24.4995 79.7342 24.5031C79.1524 24.5264 78.6351 24.138 78.4993 23.5757C78.0358 23.7131 77.3717 24.2627 77.3717 26.1517V28.4599C77.3769 29.2189 77.5066 29.5143 77.7314 29.6843C77.9512 29.8505 78.4138 29.933 78.5961 29.9655L78.6083 29.9677L78.6602 29.9763L78.6844 30.0226C78.7566 30.161 78.7973 30.3134 78.8037 30.4692C78.8072 30.78 78.5599 30.9861 78.1655 31.0977C77.7712 31.2093 77.1849 31.2506 76.398 31.2506C75.7814 31.2729 75.1645 31.2193 74.5613 31.0908C74.1375 30.9809 73.8695 30.7628 73.8695 30.4382C73.878 30.2933 73.9169 30.1518 73.9836 30.0226L74.0078 29.9763L74.0597 29.9677C74.2982 29.9229 74.5242 29.8274 74.7221 29.6878C74.9642 29.4903 75.068 29.2206 75.068 28.4599V24.6233C75.0455 23.9793 74.8864 23.7526 74.3226 23.7372C74.1715 23.7391 74.021 23.7552 73.8729 23.7852L73.7864 23.7973L73.7536 23.7217C73.6952 23.5901 73.664 23.4482 73.6619 23.3044C73.6775 22.5402 74.5613 22.1435 75.1579 21.9717C75.3718 21.9077 75.5936 21.8736 75.8169 21.8704C76.6297 21.8687 77.0708 22.4114 77.261 23.1103ZM51.3409 26.3235C51.6371 26.0712 52.0161 25.9356 52.4063 25.9422H52.4028C53.2243 25.9422 53.8348 26.6463 53.8348 27.5531C53.8227 29.2705 51.7248 31.2368 48.7553 31.2368C47.1063 31.2473 45.5193 30.6138 44.3364 29.4731C43.1638 28.3311 42.4062 26.6635 42.4062 24.5872C42.4062 22.5986 43.1534 20.9207 44.3087 19.7426C45.4566 18.5603 47.0374 17.8895 48.6913 17.8827C51.6608 17.8879 53.7587 19.8611 53.7708 21.5647C53.7691 22.4749 53.1603 23.1825 52.3388 23.1825C51.9477 23.192 51.5671 23.056 51.2717 22.8012C50.9742 22.53 50.8096 22.1442 50.8203 21.7433C50.8312 21.3277 51.0124 20.9345 51.3219 20.6545C50.931 20.0105 50.1579 19.4781 48.9472 19.4781C47.9182 19.4799 47.0534 19.9882 46.4274 20.8795C45.8013 21.7708 45.4329 23.0554 45.4329 24.5684C45.4329 26.0813 45.8168 27.3573 46.4585 28.2469C47.1001 29.1365 47.9787 29.6414 49.0164 29.6414C50.2271 29.638 51.0002 29.1159 51.3893 28.4685C51.0802 28.1913 50.8994 27.8 50.8895 27.3865C50.8784 26.9841 51.0429 26.5965 51.3409 26.3235ZM64.7428 29.8114C63.8937 29.686 63.508 29.5126 63.4959 28.8617H63.4993V25.506C63.4993 24.218 63.4751 23.3078 62.9563 22.6844C62.3907 21.9872 61.3219 21.6094 59.6235 21.6094C57.4806 21.6094 55.8791 22.4509 55.8618 23.7045C55.8599 24.0309 55.9903 24.3443 56.2235 24.5743C56.4567 24.8042 56.7732 24.9314 57.1019 24.9273C57.4532 24.9383 57.7929 24.8017 58.0375 24.5512C58.259 24.305 58.3782 23.9847 58.3713 23.6547C58.3696 23.5032 58.3481 23.3525 58.3073 23.2065C58.6837 23.0908 59.0741 23.0261 59.4678 23.0142C60.6854 23.0279 61.0988 23.6152 61.1143 24.6456V25.676C60.4802 25.4427 59.8085 25.3263 59.1323 25.3326C57.9787 25.3326 56.9843 25.5953 56.27 26.0968C55.5492 26.5766 55.1211 27.3853 55.132 28.2469C55.1372 29.978 56.6384 31.2454 58.61 31.2454C59.94 31.2454 60.9691 30.5636 61.4222 30.1995C61.7554 30.852 62.4415 31.2514 63.1776 31.2214H63.3679C64.1047 31.1681 64.7895 30.8023 64.8397 29.9162V29.8234L64.7428 29.8114ZM60.7287 26.9349C60.9898 27.0894 61.1143 27.2886 61.1143 27.4604V28.7621C60.6865 29.2691 60.061 29.5703 59.3952 29.5899C58.4025 29.583 57.7625 28.9837 57.7625 28.0975C57.7677 27.1547 58.4872 26.6807 59.5526 26.6704C59.9611 26.6552 60.3666 26.7463 60.7287 26.9349Z" fill="#0E5AA7"/><g id="Carrefour Icon"><g id="Group 7"><path id="Right Side" fill-rule="evenodd" clip-rule="evenodd" d="M15.9546 3.12693C15.1711 3.38788 14.4239 3.74812 13.7309 4.19896C9.85539 6.62357 8.11916 11.0727 7.94347 15.3799C7.93141 15.6258 7.92969 15.87 7.92969 16.1125C7.92969 16.135 7.92969 16.2597 7.92969 16.3013V31.6041H12.9713V16.3047C12.9697 15.3766 13.3795 14.4961 14.0892 13.9026L16.0786 16.3047L18.0646 13.9044C18.7745 14.4971 19.1849 15.3769 19.1842 16.3047V31.6075H24.2241V16.3047C24.2275 13.588 22.8908 11.0464 20.6558 9.51981C18.4208 7.99321 15.5784 7.68031 13.0678 8.6845C14.1012 7.47219 15.6515 6.86084 17.3636 6.82447C17.9091 6.81319 18.4544 6.8567 18.9913 6.95436C23.4524 7.68867 26.8509 11.4572 26.8681 15.9826C26.8681 16.1558 26.8801 16.329 26.8801 16.5022V31.5971H31.9235V16.3861C31.9235 9.79289 27.9825 4.50723 21.2667 2.93296C21.0221 2.87581 20.6328 2.79787 20.2849 2.75111C19.7776 2.67689 19.2661 2.63639 18.7536 2.62988C17.7989 2.63003 16.8516 2.79825 15.9546 3.12693Z" fill="#0E5AA7"/><path id="Left Color" fill-rule="evenodd" clip-rule="evenodd" d="M15.0299 2.33716C6.18065 2.33716 0 8.24871 0 16.0954V31.6046H5.13564C5.13564 31.6046 5.13564 23.0728 5.13564 16.0833C5.13564 8.78945 10.7149 3.58554 16.3152 2.45713C16.5431 2.40844 16.8096 2.33716 16.5431 2.33716L15.0299 2.33716Z" fill="#EE2527"/><mask id="mask0_484_149243" maskUnits="userSpaceOnUse" x="0" y="2" width="17" height="30"><path id="Left Color_2" fill-rule="evenodd" clip-rule="evenodd" d="M15.0299 2.33716C6.18065 2.33716 0 8.24871 0 16.0954V31.6046H5.13564C5.13564 31.6046 5.13564 23.0728 5.13564 16.0833C5.13564 8.78945 10.7149 3.58554 16.3152 2.45713C16.5431 2.40844 16.8096 2.33716 16.5431 2.33716L15.0299 2.33716Z" fill="white"/></mask><g mask="url(#mask0_484_149243)"/></g></g></g></svg>