<svg data-testid="CarrefourNewLogoMobile" width="32" height="32" viewBox="0 0 32 32" fill="none" xmlns="http://www.w3.org/2000/svg" class="css-1bah3pf"><path fill-rule="evenodd" clip-rule="evenodd" d="M14.7052 4C7.6181 4 2.66797 8.85053 2.66797 15.2812V28H6.78023C6.78023 28 6.77686 21.0029 6.77686 15.2719C6.77686 9.29023 11.2449 5.02383 15.729 4.09781C15.9116 4.05888 16.1254 4 15.9126 4H14.7052Z" fill="#DD2326"/><path d="M16.0247 4.41439C15.4822 4.59612 14.9448 4.8206 14.1709 5.30298C10.9412 7.30823 9.49354 10.9953 9.34739 14.5636C9.33792 14.7667 9.33548 14.9685 9.33548 15.1703V15.1694C9.33548 15.1891 9.33203 15.2921 9.33203 15.3258V28H13.5336V15.3258C13.5336 14.5257 13.8964 13.8111 14.4658 13.3373L16.1236 15.3258L17.7788 13.3376C18.3482 13.8111 18.7118 14.5257 18.7118 15.3258V28H22.9126V15.3258C22.9126 11.5786 19.8723 8.54092 16.1236 8.54092C15.2358 8.54092 14.3887 8.71032 13.6134 9.02029V9.01943C14.4738 8.00992 15.7736 7.50961 17.1946 7.47892H17.198C17.6416 7.4683 18.0973 7.50531 18.5541 7.58621C22.272 8.19467 25.1045 11.3083 25.119 15.0634C25.1261 15.2066 25.1287 15.3513 25.1287 15.4986V28H29.332V15.393C29.332 9.93284 26.0479 5.55471 20.4505 4.2513C20.2464 4.20497 19.9225 4.13971 19.6328 4.10098C19.2189 4.04604 18.7944 4 18.356 4C17.4465 4 16.7858 4.16094 16.0247 4.41439Z" fill="#0E5AA7"/></svg>