<svg width="12" height="11" viewBox="0 0 16 18" fill="#0E5AA7" xmlns="http://www.w3.org/2000/svg" class="css-1oteowz"><path d="M1.99951 7H4.99951V13.5H1.99951C1.8669 13.5 1.73973 13.4473 1.64596 13.3536C1.55219 13.2598 1.49951 13.1326 1.49951 13V7.5C1.49951 7.36739 1.55219 7.24021 1.64596 7.14645C1.73973 7.05268 1.8669 7 1.99951 7V7Z" stroke="white" stroke-width="1.5" stroke-linecap="round" stroke-linejoin="round"/><path d="M4.99951 7L7.49951 2C7.76216 2 8.02223 2.05173 8.26488 2.15224C8.50753 2.25275 8.72801 2.40007 8.91372 2.58579C9.09944 2.7715 9.24676 2.99198 9.34727 3.23463C9.44778 3.47728 9.49951 3.73736 9.49951 4V5.5H13.3667C13.5085 5.5 13.6487 5.53015 13.7779 5.58846C13.9072 5.64677 14.0226 5.7319 14.1164 5.8382C14.2102 5.9445 14.2804 6.06954 14.3222 6.20502C14.3641 6.34051 14.3766 6.48334 14.359 6.62403L13.609 12.624C13.5788 12.8659 13.4613 13.0884 13.2785 13.2497C13.0958 13.411 12.8605 13.5 12.6167 13.5H4.99951" stroke="white" stroke-width="1.5" stroke-linecap="round" stroke-linejoin="round"/></svg>